<svg xmlns="http://www.w3.org/2000/svg" version="1.1" width="1000.0" height="421.237056213">
  <desc>Created by CircuitLab https://www.circuitlab.com/</desc><g transform="matrix(1.18343195266,0,0,1.18343195266,-2306.50887574,-1773.96449704)">
    <rect x="2175" y="1500" width="275" height="200" r="0" rx="0" ry="0" fill="none" stroke="none" style="stroke-opacity: 0;"/>
    <rect x="2175" y="1500" width="275" height="200" r="0" rx="0" ry="0" fill="none" stroke="#000000" stroke-dasharray="16,6" stroke-width="2"/>
    <path style="stroke-linejoin: round;" fill="#000000" stroke="#000000" d="M0,50L12,36L62.666666666666664,36Z" stroke-width="2" stroke-linejoin="round" transform="translate(1975,1750)"/>
    <path style="stroke-linejoin: round;" fill="#000000" stroke="#000000" d="M0,50L12,36L62.666666666666664,36Z" stroke-width="2" stroke-linejoin="round" transform="translate(1975,1575)"/>
    <path style="stroke-linejoin: round;" fill="#000000" stroke="#000000" d="M0,50L12,36L65.66666666666666,36Z" stroke-width="2" stroke-linejoin="round" transform="translate(2625,1575)"/>
    <rect x="7" y="7" width="161" height="29" r="5" rx="5" ry="5" fill="#ffffff" stroke="#000000" stroke-width="2" transform="translate(2625,1575)"/>
    <text style="font-family: Arial; font-weight: bold; font-size: 16px; text-anchor: start;" x="12" y="22" text-anchor="start" stroke="none" fill="#000000" transform="translate(2625,1575)">
      <tspan dy="7.2">GPIO-header-pin-11</tspan>
    </text>
    <path style="stroke-linecap: round; stroke-miterlimit: 6;" fill="none" stroke="#000000" d="M25,20L25,0" stroke-width="2" stroke-linecap="round" stroke-miterlimit="6" transform="translate(1950,1800)"/>
    <path style="stroke-linecap: round; stroke-linejoin: round; stroke-miterlimit: 6;" fill="#ffffff" stroke="#000000" d="M5,20L25,40L45,20Z" stroke-width="2" stroke-linecap="round" stroke-linejoin="round" stroke-miterlimit="6" transform="translate(1950,1800)"/>
    <path style="stroke-linecap: round; stroke-miterlimit: 6;" fill="#ffffff" stroke="#000000" d="M50,50C50,36.19374,38.806255,25,25,25C11.193755,25,0,36.19374,0,50C0,63.80632,11.193755,75,25,75C38.806255,75,50,63.80632,50,50" stroke-width="2" stroke-linecap="round" stroke-miterlimit="6" transform="translate(1950,1625)"/>
    <path style="stroke-linecap: round; stroke-miterlimit: 6;" fill="none" stroke="#000000" d="M25,0L25,25" stroke-width="2" stroke-linecap="round" stroke-miterlimit="6" transform="translate(1950,1625)"/>
    <path style="stroke-linecap: round; stroke-miterlimit: 6;" fill="none" stroke="#000000" d="M25,100.00002L25,75" stroke-width="2" stroke-linecap="round" stroke-miterlimit="6" transform="translate(1950,1625)"/>
    <path style="font-size: 15px; font-weight: normal;" fill="#000000" stroke="none" d="M25.84227,33.168L24.157737,33.168L24.157737,40.48806L16.898932,40.48806L16.898932,42.17259L24.157737,42.17259L24.157737,49.49262L25.84227,49.49262L25.84227,42.17259L33.101076,42.17259L33.101076,40.48806L25.84227,40.48806L25.84227,33.168" font-size="15px" font-weight="normal" transform="translate(1950,1625)"/>
    <path style="font-size: 15px; font-weight: normal;" fill="#000000" stroke="none" d="M17.006089,60.39372L17.006089,62.07822L33.055093,62.07822L33.055093,60.39372L17.006089,60.39372" font-size="15px" font-weight="normal" transform="translate(1950,1625)"/>
    <text style="font-family: Arial; font-weight: bold; font-size: 16px; text-anchor: start;" x="0" y="0" text-anchor="start" stroke="none" fill="#000000" transform="translate(2006.25,1675)">
      <tspan dy="-2.3999999999999995">V3</tspan>
      <tspan dy="19.2" x="0">3.3 V</tspan>
    </text>
    <rect x="7" y="7" width="152" height="29" r="5" rx="5" ry="5" fill="#ffffff" stroke="#000000" stroke-width="2" transform="translate(1975,1575)"/>
    <text style="font-family: Arial; font-weight: bold; font-size: 16px; text-anchor: start;" x="12" y="22" text-anchor="start" stroke="none" fill="#000000" transform="translate(1975,1575)">
      <tspan dy="7.2">GPIO-header-pin-1</tspan>
    </text>
    <path style="stroke-linecap: round; stroke-miterlimit: 6;" fill="none" stroke="#000000" d="M25,21.87499L25,0" stroke-width="2" stroke-linecap="round" stroke-miterlimit="6" transform="matrix(0,1,-1,0,2375,1775)"/>
    <path style="stroke-linecap: round; stroke-miterlimit: 6;" fill="none" stroke="#000000" d="M25,78.12502L25,100" stroke-width="2" stroke-linecap="round" stroke-miterlimit="6" transform="matrix(0,1,-1,0,2375,1775)"/>
    <path style="stroke-linecap: round; stroke-miterlimit: 6;" fill="none" stroke="#000000" d="M25,21.87499L14.062504,26.56249L35.937495,35.93748L14.062504,45.31248L35.937495,54.68752L14.062504,64.06252L35.937495,73.43752L25,78.12502" stroke-width="2" stroke-linecap="round" stroke-miterlimit="6" transform="matrix(0,1,-1,0,2375,1775)"/>
    <text style="font-family: Arial; font-weight: bold; font-size: 16px; text-anchor: middle;" x="0" y="0" text-anchor="middle" stroke="none" fill="#000000" transform="translate(2325,1837.95)">
      <tspan dy="-2.3999999999999995">R3</tspan>
      <tspan dy="19.2" x="0">100 kΩ</tspan>
    </text>
    <path style="stroke-linecap: round; stroke-miterlimit: 6;" fill="none" stroke="#000000" d="M25,20L25,0" stroke-width="2" stroke-linecap="round" stroke-miterlimit="6" transform="translate(2600,1625)"/>
    <path style="stroke-linecap: round; stroke-linejoin: round; stroke-miterlimit: 6;" fill="#ffffff" stroke="#000000" d="M5,20L25,40L45,20Z" stroke-width="2" stroke-linecap="round" stroke-linejoin="round" stroke-miterlimit="6" transform="translate(2600,1625)"/>
    <path style="stroke-linecap: round; stroke-miterlimit: 6;" fill="none" stroke="#000000" d="M25,21.87499L25,0" stroke-width="2" stroke-linecap="round" stroke-miterlimit="6" transform="matrix(0,-1,1,0,2500,1650)"/>
    <path style="stroke-linecap: round; stroke-miterlimit: 6;" fill="none" stroke="#000000" d="M25,78.12502L25,100" stroke-width="2" stroke-linecap="round" stroke-miterlimit="6" transform="matrix(0,-1,1,0,2500,1650)"/>
    <path style="stroke-linecap: round; stroke-miterlimit: 6;" fill="none" stroke="#000000" d="M25,21.87499L14.062504,26.56249L35.937495,35.93748L14.062504,45.31248L35.937495,54.68752L14.062504,64.06252L35.937495,73.43752L25,78.12502" stroke-width="2" stroke-linecap="round" stroke-miterlimit="6" transform="matrix(0,-1,1,0,2500,1650)"/>
    <text style="font-family: Arial; font-weight: bold; font-size: 16px; text-anchor: middle;" x="0" y="0" text-anchor="middle" stroke="none" fill="#000000" transform="translate(2550,1587.05)">
      <tspan dy="-2.3999999999999995">R2</tspan>
      <tspan dy="19.2" x="0">1 kΩ</tspan>
    </text>
    <path style="stroke-linecap: round;" fill="none" stroke="#000000" d="M 1975 1725 L 1975 1800" stroke-width="2" stroke-linecap="round" class="cl_wire"/>
    <path style="stroke-linecap: round;" fill="none" stroke="#000000" d="M 1975 1800 L 2275 1800" stroke-width="2" stroke-linecap="round" class="cl_wire"/>
    <rect x="7" y="7" width="152" height="29" r="5" rx="5" ry="5" fill="#ffffff" stroke="#000000" stroke-width="2" transform="translate(1975,1750)"/>
    <text style="font-family: Arial; font-weight: bold; font-size: 16px; text-anchor: start;" x="12" y="22" text-anchor="start" stroke="none" fill="#000000" transform="translate(1975,1750)">
      <tspan dy="7.2">GPIO-header-pin-6</tspan>
    </text>
    <path style="stroke-linecap: round; stroke-miterlimit: 6;" fill="none" stroke="#000000" d="M25,21.87499L25,0" stroke-width="2" stroke-linecap="round" stroke-miterlimit="6" transform="matrix(0,1,-1,0,2375,1600)"/>
    <path style="stroke-linecap: round; stroke-miterlimit: 6;" fill="none" stroke="#000000" d="M25,78.12502L25,100" stroke-width="2" stroke-linecap="round" stroke-miterlimit="6" transform="matrix(0,1,-1,0,2375,1600)"/>
    <path style="stroke-linecap: round; stroke-miterlimit: 6;" fill="none" stroke="#000000" d="M25,21.87499L14.062504,26.56249L35.937495,35.93748L14.062504,45.31248L35.937495,54.68752L14.062504,64.06252L35.937495,73.43752L25,78.12502" stroke-width="2" stroke-linecap="round" stroke-miterlimit="6" transform="matrix(0,1,-1,0,2375,1600)"/>
    <text style="font-family: Arial; font-weight: bold; font-size: 16px; text-anchor: middle;" x="0" y="0" text-anchor="middle" stroke="none" fill="#000000" transform="translate(2325,1662.95)">
      <tspan dy="-2.3999999999999995">R1</tspan>
      <tspan dy="19.2" x="0">35 kΩ</tspan>
    </text>
    <text style="font-family: Arial; font-weight: bold; text-anchor: start; font-size: 16px;" x="0" y="0" text-anchor="start" stroke="none" fill="#000000" transform="translate(2200,1563.5)">
      <tspan dy="-21.599999999999998">Water "switch": bell wire</tspan>
      <tspan dy="19.2" x="0">stripped where flood expected.</tspan>
      <tspan dy="19.2" x="0">∞Ω when dry; ~35kΩ when wet;</tspan>
      <tspan dy="19.2" x="0">0Ω when shorted</tspan>
    </text>
    <path style="stroke-linecap: round;" fill="none" stroke="#000000" d="M 1975 1625 L 2275 1625" stroke-width="2" stroke-linecap="round" class="cl_wire"/>
    <path style="stroke-linecap: round;" fill="none" stroke="#000000" d="M 2375 1625 L 2475 1625" stroke-width="2" stroke-linecap="round" class="cl_wire"/>
    <path style="stroke-linecap: round;" fill="none" stroke="#000000" d="M 2475 1625 L 2475 1800" stroke-width="2" stroke-linecap="round" class="cl_wire"/>
    <path style="stroke-linecap: round;" fill="none" stroke="#000000" d="M 2375 1800 L 2475 1800" stroke-width="2" stroke-linecap="round" class="cl_wire"/>
    <path style="stroke-linecap: round;" fill="none" stroke="#000000" d="M 2600 1625 L 2625 1625" stroke-width="2" stroke-linecap="round" class="cl_wire"/>
    <path style="stroke-linecap: round;" fill="none" stroke="#000000" d="M 2475 1625 L 2500 1625" stroke-width="2" stroke-linecap="round" class="cl_wire"/>
    <text style="font-family: Arial; font-weight: bold; text-anchor: start; font-size: 16px;" x="0" y="0" text-anchor="start" stroke="none" fill="#000000" transform="translate(2025,1810)">
      <tspan dy="7.2">0.0 V</tspan>
    </text>
    <circle cx="2625" cy="1625" r="3" fill="#000000" stroke="#000000"/>
    <circle cx="1975" cy="1800" r="3" fill="#000000" stroke="#000000"/>
    <circle cx="1975" cy="1625" r="3" fill="#000000" stroke="#000000"/>
    <circle cx="2475" cy="1625" r="3" fill="#000000" stroke="#000000"/>
  </g>
</svg>
