<?xml version="1.0" encoding="UTF-8" standalone="no"?>
<svg
   xmlns:dc="http://purl.org/dc/elements/1.1/"
   xmlns:cc="http://creativecommons.org/ns#"
   xmlns:rdf="http://www.w3.org/1999/02/22-rdf-syntax-ns#"
   xmlns:svg="http://www.w3.org/2000/svg"
   xmlns="http://www.w3.org/2000/svg"
   xmlns:xlink="http://www.w3.org/1999/xlink"
   xmlns:sodipodi="http://sodipodi.sourceforge.net/DTD/sodipodi-0.dtd"
   xmlns:inkscape="http://www.inkscape.org/namespaces/inkscape"
   width="600"
   height="320"
   viewBox="-600 0 600 320"
   id="svg2"
   version="1.1"
   inkscape:version="0.48.4 r9939"
   sodipodi:docname="bzip2_min.svg">
  <metadata
     id="metadata134">
    <rdf:RDF>
      <cc:Work
         rdf:about="">
        <dc:format>image/svg+xml</dc:format>
        <dc:type
           rdf:resource="http://purl.org/dc/dcmitype/StillImage" />
      </cc:Work>
    </rdf:RDF>
  </metadata>
  <defs
     id="defs132" />
  <sodipodi:namedview
     pagecolor="#ffffff"
     bordercolor="#666666"
     borderopacity="1"
     objecttolerance="10"
     gridtolerance="10"
     guidetolerance="10"
     inkscape:pageopacity="0"
     inkscape:pageshadow="2"
     inkscape:window-width="970"
     inkscape:window-height="690"
     id="namedview130"
     showgrid="false"
     inkscape:zoom="1.3266667"
     inkscape:cx="317.79874"
     inkscape:cy="186.39791"
     inkscape:window-x="0"
     inkscape:window-y="26"
     inkscape:window-maximized="0"
     inkscape:current-layer="g104" />
  <title
     id="title4">Gnuplot</title>
  <desc
     id="desc6">Produced by GNUPLOT 4.6 patchlevel 1 (Gentoo revision r0) </desc>
  <g
     id="gnuplot_canvas"
     transform="rotate(90 0 0)">
    <rect
       x="0"
       y="0"
       width="320"
       height="600"
       fill="none"
       id="rect9" />
    <defs
       id="defs11">
      <circle
         id="gpDot"
         r="0.5"
         stroke-width="0.5" />
      <path
         id="gpPt0"
         stroke-width="0.222"
         stroke="currentColor"
         d="M-1,0 h2 M0,-1 v2" />
      <path
         id="gpPt1"
         stroke-width="0.222"
         stroke="currentColor"
         d="M-1,-1 L1,1 M1,-1 L-1,1" />
      <path
         id="gpPt2"
         stroke-width="0.222"
         stroke="currentColor"
         d="M-1,0 L1,0 M0,-1 L0,1 M-1,-1 L1,1 M-1,1 L1,-1" />
      <rect
         id="gpPt3"
         stroke-width="0.222"
         stroke="currentColor"
         x="-1"
         y="-1"
         width="2"
         height="2" />
      <rect
         id="gpPt4"
         stroke-width="0.222"
         stroke="currentColor"
         fill="currentColor"
         x="-1"
         y="-1"
         width="2"
         height="2" />
      <circle
         id="gpPt5"
         stroke-width="0.222"
         stroke="currentColor"
         cx="0"
         cy="0"
         r="1" />
      <use
         xlink:href="#gpPt5"
         id="gpPt6"
         fill="currentColor"
         stroke="none" />
      <path
         id="gpPt7"
         stroke-width="0.222"
         stroke="currentColor"
         d="M0,-1.33 L-1.33,0.67 L1.33,0.67 z" />
      <use
         xlink:href="#gpPt7"
         id="gpPt8"
         fill="currentColor"
         stroke="none" />
      <use
         xlink:href="#gpPt7"
         id="gpPt9"
         stroke="currentColor"
         transform="rotate(180)" />
      <use
         xlink:href="#gpPt9"
         id="gpPt10"
         fill="currentColor"
         stroke="none" />
      <use
         xlink:href="#gpPt3"
         id="gpPt11"
         stroke="currentColor"
         transform="rotate(45)" />
      <use
         xlink:href="#gpPt11"
         id="gpPt12"
         fill="currentColor"
         stroke="none" />
    </defs>
    <g
       style="fill:none; color:white; stroke:currentColor; stroke-width:1.20; stroke-linecap:butt; stroke-linejoin:miter"
       id="g27" />
    <g
       style="fill:none; color:black; stroke:currentColor; stroke-width:1.20; stroke-linecap:butt; stroke-linejoin:miter"
       id="g29">
      <path
         d="M64.6,483.0 L64.6,492.0 M64.6,27.1 L64.6,18.1  h0.01"
         id="path31" />
      <g
         transform="translate(69.1,500.3) rotate(270)"
         style="stroke:none; fill:black; font-family:Bitstream Vera Sans; font-size:12.00pt; text-anchor:end"
         id="g33">
        <text
           id="text35">Model B</text>
      </g>
      <path
         d="M131.6,483.0 L131.6,492.0 M131.6,27.1 L131.6,18.1  h0.01"
         id="path37" />
      <g
         transform="translate(136.1,500.3) rotate(270)"
         style="stroke:none; fill:black; font-family:Bitstream Vera Sans; font-size:12.00pt; text-anchor:end"
         id="g39">
        <text
           id="text41">Cubieboard</text>
      </g>
      <path
         d="M198.5,483.0 L198.5,492.0 M198.5,27.1 L198.5,18.1  h0.01"
         id="path43" />
      <g
         transform="translate(203.0,500.3) rotate(270)"
         style="stroke:none; fill:black; font-family:Bitstream Vera Sans; font-size:12.00pt; text-anchor:end"
         id="g45">
        <text
           id="text47">Cubieboard2</text>
      </g>
      <path
         d="M232.0,483.0 L241.0,483.0  h0.01"
         id="path49" />
      <g
         transform="translate(255.2,483.0) rotate(270)"
         style="stroke:none; fill:black; font-family:Bitstream Vera Sans; font-size:12.00pt; text-anchor:middle"
         id="g51">
        <text
           id="text53"> 0</text>
      </g>
      <path
         d="M232.0,407.0 L241.0,407.0  h0.01"
         id="path55" />
      <g
         transform="translate(255.2,407.0) rotate(270)"
         style="stroke:none; fill:black; font-family:Bitstream Vera Sans; font-size:12.00pt; text-anchor:middle"
         id="g57">
        <text
           id="text59"> 0.5</text>
      </g>
      <path
         d="M232.0,331.0 L241.0,331.0  h0.01"
         id="path61" />
      <g
         transform="translate(255.2,331.0) rotate(270)"
         style="stroke:none; fill:black; font-family:Bitstream Vera Sans; font-size:12.00pt; text-anchor:middle"
         id="g63">
        <text
           id="text65"> 1</text>
      </g>
      <path
         d="M232.0,255.0 L241.0,255.0  h0.01"
         id="path67" />
      <g
         transform="translate(255.2,255.0) rotate(270)"
         style="stroke:none; fill:black; font-family:Bitstream Vera Sans; font-size:12.00pt; text-anchor:middle"
         id="g69">
        <text
           id="text71"> 1.5</text>
      </g>
      <path
         d="M232.0,179.1 L241.0,179.1  h0.01"
         id="path73" />
      <g
         transform="translate(255.2,179.1) rotate(270)"
         style="stroke:none; fill:black; font-family:Bitstream Vera Sans; font-size:12.00pt; text-anchor:middle"
         id="g75">
        <text
           id="text77"> 2</text>
      </g>
      <path
         d="M232.0,103.1 L241.0,103.1  h0.01"
         id="path79" />
      <g
         transform="translate(255.2,103.1) rotate(270)"
         style="stroke:none; fill:black; font-family:Bitstream Vera Sans; font-size:12.00pt; text-anchor:middle"
         id="g81">
        <text
           id="text83"> 2.5</text>
      </g>
      <path
         d="M232.0,27.1 L241.0,27.1  h0.01"
         id="path85" />
      <g
         transform="translate(255.2,27.1) rotate(270)"
         style="stroke:none; fill:black; font-family:Bitstream Vera Sans; font-size:12.00pt; text-anchor:middle"
         id="g87">
        <text
           id="text89"> 3</text>
      </g>
      <path
         d="M31.1,27.1 L31.1,483.0 L232.0,483.0 L232.0,27.1 L31.1,27.1 Z  h0.01"
         id="path91" />
      <g
         transform="translate(17.6,255.1) rotate(270)"
         style="stroke:none; fill:black; font-family:Bitstream Vera Sans; font-size:12.00pt; text-anchor:middle"
         id="g93">
        <text
           id="text95">bzip2 Compression</text>
      </g>
      <g
         transform="translate(287.7,255.1) rotate(270)"
         style="stroke:none; fill:black; font-family:Bitstream Vera Sans; font-size:12.00pt; text-anchor:middle"
         id="g97">
        <text
           id="text99">Time (minutes)</text>
      </g>
    </g>
    <g
       id="gnuplot_plot_1">
      <title
         id="title102">gnuplot_plot_1</title>
      <g
         style="fill:none; color:red; stroke:currentColor; stroke-width:1.20; stroke-linecap:butt; stroke-linejoin:miter"
         id="g104">
        <g
           style="stroke:none; shape-rendering:crispEdges"
           id="g106">
          <polygon
             fill="currentColor"
             fill-opacity="0.300000"
             points="42.8,483.0 86.4,483.0 86.4,27.0 42.8,27.0 "
             id="polygon108" />
        </g>
        <path
           d="M42.8,483.0 L42.8,27.1 L86.3,27.1 L86.3,483.0 L42.8,483.0 Z  h0.01"
           id="path110" />
        <g
           style="stroke:none; shape-rendering:crispEdges"
           id="g112">
          <polygon
             fill="currentColor"
             fill-opacity="0.300000"
             points="109.8,483.0 153.4,483.0 153.4,237.4 109.8,237.4 "
             id="polygon114" />
        </g>
        <path
           d="M109.8,483.0 L109.8,237.5 L153.3,237.5 L153.3,483.0 L109.8,483.0 Z  h0.01"
           id="path116" />
        <g
           style="stroke:none"
           id="g118"
           transform="matrix(1,0,0,1.4246778,0,-205.11932)">
          <polygon
             points="176.8,483 220.4,483 220.4,306.7 176.8,306.7 "
             id="polygon120"
             style="fill:currentColor;fill-opacity:0.3" />
        </g>
        <path
           d="m 176.8,482.99995 0,-251.19998 43.5,0 0,251.19998 -43.5,0 z m 0,0 h 0.01"
           id="path122"
           inkscape:connector-curvature="0"
           style="stroke-width:1.20000005" />
        <path
           d="m 64.6,29.5 0,-2.4 m -4.5,2.4 9,0 m -9,-2.4 9,0 m 62.5,227.2 0,-25.3 m -4.5,25.3 9,0 m -9,-25.3 9,0 m 62.4,9.89065 0,-15.89065 m -4.5,15.89065 9,0 M 194,223 l 9,0 0.01,0"
           id="path124"
           inkscape:connector-curvature="0"
           sodipodi:nodetypes="ccccccccccccccccccc" />
      </g>
    </g>
    <g
       style="fill:none; color:black; stroke:currentColor; stroke-width:1.20; stroke-linecap:butt; stroke-linejoin:miter"
       id="g126">
      <path
         d="M31.1,27.1 L31.1,483.0 L232.0,483.0 L232.0,27.1 L31.1,27.1 Z  h0.01"
         id="path128" />
    </g>
  </g>
</svg>
