<svg xmlns="http://www.w3.org/2000/svg" version="1.1" width="1000.0" height="531.088082902">
  <desc>Created by CircuitLab https://www.circuitlab.com/</desc><g transform="matrix(1.29533678757,0,0,1.29533678757,-2466.32124352,-1400.25906736)">
    <rect x="2525" y="1325" width="125" height="100" r="0" rx="0" ry="0" fill="none" stroke="none" style="stroke-opacity: 0;"/>
    <rect x="2525" y="1325" width="125" height="100" r="0" rx="0" ry="0" fill="none" stroke="#000000" stroke-dasharray="16,6" stroke-width="2"/>
    <path style="stroke-linejoin: round;" fill="#000000" stroke="#000000" d="M0,50L12,36L62.333333333333336,36Z" stroke-width="2" stroke-linejoin="round" transform="translate(1950,1400)"/>
    <path style="stroke-linejoin: round;" fill="#000000" stroke="#000000" d="M0,50L12,36L65,36Z" stroke-width="2" stroke-linejoin="round" transform="translate(2025,1250)"/>
    <path style="stroke-linejoin: round;" fill="#000000" stroke="#000000" d="M0,50L12,36L62.333333333333336,36Z" stroke-width="2" stroke-linejoin="round" transform="translate(2025,1075)"/>
    <path style="stroke-linecap: round; stroke-miterlimit: 6;" fill="#ffffff" stroke="#000000" d="M50,50C50,36.19374,38.806255,25,25,25C11.193755,25,0,36.19374,0,50C0,63.80632,11.193755,75,25,75C38.806255,75,50,63.80632,50,50" stroke-width="2" stroke-linecap="round" stroke-miterlimit="6" transform="matrix(0,1,-1,0,2025,1100)"/>
    <path style="stroke-linecap: round; stroke-miterlimit: 6;" fill="none" stroke="#000000" d="M25,0L25,25" stroke-width="2" stroke-linecap="round" stroke-miterlimit="6" transform="matrix(0,1,-1,0,2025,1100)"/>
    <path style="stroke-linecap: round; stroke-miterlimit: 6;" fill="none" stroke="#000000" d="M25,100.00002L25,75" stroke-width="2" stroke-linecap="round" stroke-miterlimit="6" transform="matrix(0,1,-1,0,2025,1100)"/>
    <path style="font-size: 15px; font-weight: normal;" fill="#000000" stroke="none" d="M25.84227,33.168L24.157737,33.168L24.157737,40.48806L16.898932,40.48806L16.898932,42.17259L24.157737,42.17259L24.157737,49.49262L25.84227,49.49262L25.84227,42.17259L33.101076,42.17259L33.101076,40.48806L25.84227,40.48806L25.84227,33.168" font-size="15px" font-weight="normal" transform="matrix(0,1,-1,0,2025,1100)"/>
    <path style="font-size: 15px; font-weight: normal;" fill="#000000" stroke="none" d="M17.006089,60.39372L17.006089,62.07822L33.055093,62.07822L33.055093,60.39372L17.006089,60.39372" font-size="15px" font-weight="normal" transform="matrix(0,1,-1,0,2025,1100)"/>
    <text style="font-family: Arial; font-weight: bold; font-size: 16px; text-anchor: middle;" x="0" y="0" text-anchor="middle" stroke="none" fill="#000000" transform="translate(1975,1175.45)">
      <tspan dy="-2.3999999999999995">V1</tspan>
      <tspan dy="19.2" x="0">3.3v</tspan>
    </text>
    <path style="stroke-linecap: round; stroke-miterlimit: 6;" fill="none" stroke="#000000" d="M25,20L25,0" stroke-width="2" stroke-linecap="round" stroke-miterlimit="6" transform="translate(1900,1450)"/>
    <path style="stroke-linecap: round; stroke-linejoin: round; stroke-miterlimit: 6;" fill="#ffffff" stroke="#000000" d="M5,20L25,40L45,20Z" stroke-width="2" stroke-linecap="round" stroke-linejoin="round" stroke-miterlimit="6" transform="translate(1900,1450)"/>
    <rect x="7" y="7" width="151" height="29" r="5" rx="5" ry="5" fill="#ffffff" stroke="#000000" stroke-width="2" transform="translate(2025,1075)"/>
    <text style="font-family: Arial; font-weight: bold; font-size: 16px; text-anchor: start;" x="12" y="22" text-anchor="start" stroke="none" fill="#000000" transform="translate(2025,1075)">
      <tspan dy="7.2">GPIO-header-pin-1</tspan>
    </text>
    <rect x="7" y="7" width="159" height="29" r="5" rx="5" ry="5" fill="#ffffff" stroke="#000000" stroke-width="2" transform="translate(2025,1250)"/>
    <text style="font-family: Arial; font-weight: bold; font-size: 16px; text-anchor: start;" x="12" y="22" text-anchor="start" stroke="none" fill="#000000" transform="translate(2025,1250)">
      <tspan dy="7.2">GPIO-header-pin-11</tspan>
    </text>
    <rect x="7" y="7" width="151" height="29" r="5" rx="5" ry="5" fill="#ffffff" stroke="#000000" stroke-width="2" transform="translate(1950,1400)"/>
    <text style="font-family: Arial; font-weight: bold; font-size: 16px; text-anchor: start;" x="12" y="22" text-anchor="start" stroke="none" fill="#000000" transform="translate(1950,1400)">
      <tspan dy="7.2">GPIO-header-pin-6</tspan>
    </text>
    <path style="stroke-linecap: round; stroke-miterlimit: 6;" fill="none" stroke="#000000" d="M25,21.87499L25,0" stroke-width="2" stroke-linecap="round" stroke-miterlimit="6" transform="matrix(0,1,-1,0,2325,1100)"/>
    <path style="stroke-linecap: round; stroke-miterlimit: 6;" fill="none" stroke="#000000" d="M25,78.12502L25,100" stroke-width="2" stroke-linecap="round" stroke-miterlimit="6" transform="matrix(0,1,-1,0,2325,1100)"/>
    <path style="stroke-linecap: round; stroke-miterlimit: 6;" fill="none" stroke="#000000" d="M25,21.87499L14.062504,26.56249L35.937495,35.93748L14.062504,45.31248L35.937495,54.68752L14.062504,64.06252L35.937495,73.43752L25,78.12502" stroke-width="2" stroke-linecap="round" stroke-miterlimit="6" transform="matrix(0,1,-1,0,2325,1100)"/>
    <text style="font-family: Arial; font-weight: bold; font-size: 16px; text-anchor: middle;" x="0" y="0" text-anchor="middle" stroke="none" fill="#000000" transform="translate(2275,1162.95)">
      <tspan dy="-2.3999999999999995">R1</tspan>
      <tspan dy="19.2" x="0">100 Ω</tspan>
    </text>
    <path style="stroke-linecap: round; stroke-miterlimit: 6;" fill="none" stroke="#000000" d="M25,21.87499L25,0" stroke-width="2" stroke-linecap="round" stroke-miterlimit="6" transform="matrix(0,1,-1,0,2325,1275)"/>
    <path style="stroke-linecap: round; stroke-miterlimit: 6;" fill="none" stroke="#000000" d="M25,78.12502L25,100" stroke-width="2" stroke-linecap="round" stroke-miterlimit="6" transform="matrix(0,1,-1,0,2325,1275)"/>
    <path style="stroke-linecap: round; stroke-miterlimit: 6;" fill="none" stroke="#000000" d="M25,21.87499L14.062504,26.56249L35.937495,35.93748L14.062504,45.31248L35.937495,54.68752L14.062504,64.06252L35.937495,73.43752L25,78.12502" stroke-width="2" stroke-linecap="round" stroke-miterlimit="6" transform="matrix(0,1,-1,0,2325,1275)"/>
    <text style="font-family: Arial; font-weight: bold; font-size: 16px; text-anchor: middle;" x="0" y="0" text-anchor="middle" stroke="none" fill="#000000" transform="translate(2275,1337.95)">
      <tspan dy="-2.3999999999999995">R2</tspan>
      <tspan dy="19.2" x="0">1 kΩ</tspan>
    </text>
    <path style="stroke-linecap: round; stroke-miterlimit: 6;" fill="none" stroke="#000000" d="M0,50L12.5,50" stroke-width="2" stroke-linecap="round" stroke-miterlimit="6" transform="translate(2350,1250)"/>
    <path style="stroke-linecap: round; stroke-miterlimit: 6;" fill="none" stroke="#000000" d="M12.5,87.5L12.5,12.5" stroke-width="2" stroke-linecap="round" stroke-miterlimit="6" transform="translate(2350,1250)"/>
    <path style="stroke-linecap: round; stroke-miterlimit: 6;" fill="none" stroke="#000000" d="M12.5,32.81249L50,12.5" stroke-width="2" stroke-linecap="round" stroke-miterlimit="6" transform="translate(2350,1250)"/>
    <path style="stroke-linecap: round; stroke-miterlimit: 6;" fill="none" stroke="#000000" d="M50,0L50,12.5" stroke-width="2" stroke-linecap="round" stroke-miterlimit="6" transform="translate(2350,1250)"/>
    <path style="stroke-linecap: round; stroke-miterlimit: 6;" fill="none" stroke="#000000" d="M12.5,67.18752L50,87.5" stroke-width="2" stroke-linecap="round" stroke-miterlimit="6" transform="translate(2350,1250)"/>
    <path style="stroke-linecap: round; stroke-miterlimit: 6;" fill="none" stroke="#000000" d="M50,100L50,87.5" stroke-width="2" stroke-linecap="round" stroke-miterlimit="6" transform="translate(2350,1250)"/>
    <path fill="#000000" stroke="none" d="M27.931232,81.97502C36.649984,82.49792,38.679151,83.67082,50,87.5C41.0229,79.61042,38.993733,78.43962,34.181237,71.15002C33.189565,75.98962,31.627079,78.69792,27.931232,81.97502" transform="translate(2350,1250)"/>
    <text style="font-family: Arial; font-weight: bold; font-size: 16px; text-anchor: start;" x="0" y="0" text-anchor="start" stroke="none" fill="#000000" transform="translate(2400,1300)">
      <tspan dy="-2.3999999999999995">Q1</tspan>
      <tspan dy="19.2" x="0">BC547C</tspan>
    </text>
    <path style="stroke-linecap: round;" fill="none" stroke="#000000" d="M 2325 1300 L 2350 1300" stroke-width="2" stroke-linecap="round" class="cl_wire"/>
    <path style="stroke-linecap: round;" fill="none" stroke="#000000" d="M 2400 1125 L 2400 1250" stroke-width="2" stroke-linecap="round" class="cl_wire"/>
    <path style="stroke-linecap: round;" fill="none" stroke="#000000" d="M 2325 1125 L 2400 1125" stroke-width="2" stroke-linecap="round" class="cl_wire"/>
    <path style="stroke-linecap: round;" fill="none" stroke="#000000" d="M 2400 1350 L 2400 1400" stroke-width="2" stroke-linecap="round" class="cl_wire"/>
    <path style="stroke-linecap: round; stroke-miterlimit: 6;" fill="none" stroke="#000000" d="M25,21.87499L25,0" stroke-width="2" stroke-linecap="round" stroke-miterlimit="6" transform="matrix(0,-1,1,0,2525,1425)"/>
    <path style="stroke-linecap: round; stroke-miterlimit: 6;" fill="none" stroke="#000000" d="M25,78.12502L25,100" stroke-width="2" stroke-linecap="round" stroke-miterlimit="6" transform="matrix(0,-1,1,0,2525,1425)"/>
    <path style="stroke-linecap: round; stroke-miterlimit: 6;" fill="none" stroke="#000000" d="M25,21.87499L14.062504,26.56249L35.937495,35.93748L14.062504,45.31248L35.937495,54.68752L14.062504,64.06252L35.937495,73.43752L25,78.12502" stroke-width="2" stroke-linecap="round" stroke-miterlimit="6" transform="matrix(0,-1,1,0,2525,1425)"/>
    <text style="font-family: Arial; font-weight: bold; font-size: 16px; text-anchor: middle;" x="0" y="0" text-anchor="middle" stroke="none" fill="#000000" transform="translate(2575,1362.05)">
      <tspan dy="-2.3999999999999995">R3</tspan>
      <tspan dy="19.2" x="0">200 Ω</tspan>
    </text>
    <path style="stroke-linecap: round;" fill="none" stroke="#000000" d="M 2400 1400 L 2525 1400" stroke-width="2" stroke-linecap="round" class="cl_wire"/>
    <path style="stroke-linecap: round;" fill="none" stroke="#000000" d="M 1925 1450 L 2675 1450" stroke-width="2" stroke-linecap="round" class="cl_wire"/>
    <path style="stroke-linecap: round;" fill="none" stroke="#000000" d="M 2625 1400 L 2675 1400" stroke-width="2" stroke-linecap="round" class="cl_wire"/>
    <path style="stroke-linecap: round;" fill="none" stroke="#000000" d="M 2675 1400 L 2675 1450" stroke-width="2" stroke-linecap="round" class="cl_wire"/>
    <text style="font-family: Arial; font-weight: bold; text-anchor: start; font-size: 16px;" x="0" y="0" text-anchor="start" stroke="none" fill="#000000" transform="translate(2550,1294.5)">
      <tspan dy="-2.3999999999999995">Buzzer</tspan>
      <tspan dy="19.2" x="0">Velleman SVM06</tspan>
    </text>
    <text style="font-family: Arial; font-weight: bold; text-anchor: start; font-size: 16px;" x="0" y="0" text-anchor="start" stroke="none" fill="#000000" transform="translate(2375,1260)">
      <tspan dy="7.2">c</tspan>
    </text>
    <text style="font-family: Arial; font-weight: bold; text-anchor: start; font-size: 16px;" x="0" y="0" text-anchor="start" stroke="none" fill="#000000" transform="translate(2350,1285)">
      <tspan dy="7.2">b</tspan>
    </text>
    <text style="font-family: Arial; font-weight: bold; text-anchor: start; font-size: 16px;" x="0" y="0" text-anchor="start" stroke="none" fill="#000000" transform="translate(2375,1310)">
      <tspan dy="7.2">e</tspan>
    </text>
    <path style="stroke-linecap: round; stroke-miterlimit: 6;" fill="#ffffff" stroke="#000000" d="M50,50C50,36.19374,38.806255,25,25,25C11.193755,25,0,36.19374,0,50C0,63.80632,11.193755,75,25,75C38.806255,75,50,63.80632,50,50" stroke-width="2" stroke-linecap="round" stroke-miterlimit="6" transform="matrix(0,1,-1,0,2025,1275)"/>
    <path style="stroke-linecap: round; stroke-miterlimit: 6;" fill="none" stroke="#000000" d="M25,0L25,25" stroke-width="2" stroke-linecap="round" stroke-miterlimit="6" transform="matrix(0,1,-1,0,2025,1275)"/>
    <path style="stroke-linecap: round; stroke-miterlimit: 6;" fill="none" stroke="#000000" d="M25,100.00002L25,75" stroke-width="2" stroke-linecap="round" stroke-miterlimit="6" transform="matrix(0,1,-1,0,2025,1275)"/>
    <path style="font-size: 15px; font-weight: normal;" fill="#000000" stroke="none" d="M25.84227,33.168L24.157737,33.168L24.157737,40.48806L16.898932,40.48806L16.898932,42.17259L24.157737,42.17259L24.157737,49.49262L25.84227,49.49262L25.84227,42.17259L33.101076,42.17259L33.101076,40.48806L25.84227,40.48806L25.84227,33.168" font-size="15px" font-weight="normal" transform="matrix(0,1,-1,0,2025,1275)"/>
    <path style="font-size: 15px; font-weight: normal;" fill="#000000" stroke="none" d="M17.006089,60.39372L17.006089,62.07822L33.055093,62.07822L33.055093,60.39372L17.006089,60.39372" font-size="15px" font-weight="normal" transform="matrix(0,1,-1,0,2025,1275)"/>
    <text style="font-family: Arial; font-weight: bold; font-size: 16px; text-anchor: middle;" x="0" y="0" text-anchor="middle" stroke="none" fill="#000000" transform="translate(1975,1350.45)">
      <tspan dy="-2.3999999999999995">V2</tspan>
      <tspan dy="19.2" x="0">3.3v</tspan>
    </text>
    <path style="stroke-linecap: round;" fill="none" stroke="#000000" d="M 2025 1125 L 2225 1125" stroke-width="2" stroke-linecap="round" class="cl_wire"/>
    <path style="stroke-linecap: round;" fill="none" stroke="#000000" d="M 1925 1125 L 1925 1450" stroke-width="2" stroke-linecap="round" class="cl_wire"/>
    <path style="stroke-linecap: round;" fill="none" stroke="#000000" d="M 2025 1300 L 2225 1300" stroke-width="2" stroke-linecap="round" class="cl_wire"/>
    <circle cx="2025" cy="1125" r="3" fill="#000000" stroke="#000000"/>
    <circle cx="1925" cy="1450" r="3" fill="#000000" stroke="#000000"/>
    <circle cx="2025" cy="1300" r="3" fill="#000000" stroke="#000000"/>
    <circle cx="1950" cy="1450" r="3" fill="#000000" stroke="#000000"/>
    <circle cx="1925" cy="1300" r="3" fill="#000000" stroke="#000000"/>
  </g>
</svg>
